<svg xmlns="http://www.w3.org/2000/svg" xmlns:xlink="http://www.w3.org/1999/xlink" contentStyleType="text/css" data-diagram-type="DESCRIPTION" height="880px" preserveAspectRatio="none" style="width:1647px;height:880px;background:#FFFFFF;" version="1.1" viewBox="0 0 1647 880" width="1647px" zoomAndPan="magnify"><?plantuml 1.2026.3?><defs/><g><g class="title" data-source-line="2"><text fill="#000000" font-family="sans-serif" font-size="14" font-weight="700" lengthAdjust="spacing" textLength="282.3926" x="679.2187" y="26.0439">Component Diagram: System Architecture</text></g><!--cluster Client Layer--><g class="cluster" data-qualified-name="Client Layer" data-source-line="9" id="ent0002"><rect fill="none" height="112" rx="2.5" ry="2.5" style="stroke:#181818;stroke-width:1;" width="188" x="432" y="47.1201"/><text fill="#000000" font-family="sans-serif" font-size="14" font-weight="700" lengthAdjust="spacing" textLength="80.1377" x="485.9312" y="65.1641">Client Layer</text></g><!--cluster Go REST API--><g class="cluster" data-qualified-name="Go REST API" data-source-line="13" id="ent0004"><rect fill="none" height="512" rx="2.5" ry="2.5" style="stroke:#181818;stroke-width:1;" width="1055" x="7" y="210.1201"/><text fill="#000000" font-family="sans-serif" font-size="14" font-weight="700" lengthAdjust="spacing" textLength="87.8965" x="490.5518" y="228.1641">Go REST API</text></g><!--cluster Domain Modules--><g class="cluster" data-qualified-name="Go REST API.Domain Modules" data-source-line="16" id="ent0006"><rect fill="none" height="112" rx="2.5" ry="2.5" style="stroke:#181818;stroke-width:1;" width="673" x="31" y="471.1201"/><text fill="#000000" font-family="sans-serif" font-size="14" font-weight="700" lengthAdjust="spacing" textLength="112.0068" x="311.4966" y="489.1641">Domain Modules</text></g><!--cluster Persistence and Infrastructure--><g class="cluster" data-qualified-name="Persistence and Infrastructure" data-source-line="32" id="ent0018"><rect fill="none" height="111" rx="2.5" ry="2.5" style="stroke:#181818;stroke-width:1;" width="463" x="503" y="755.1201"/><text fill="#000000" font-family="sans-serif" font-size="14" font-weight="700" lengthAdjust="spacing" textLength="202.2959" x="633.3521" y="773.1641">Persistence and Infrastructure</text></g><!--cluster Recommendation Provider--><g class="cluster" data-qualified-name="Recommendation Provider" data-source-line="38" id="ent0022"><rect fill="none" height="112" rx="2.5" ry="2.5" style="stroke:#181818;stroke-width:1;" width="376" x="1086" y="471.1201"/><text fill="#000000" font-family="sans-serif" font-size="14" font-weight="700" lengthAdjust="spacing" textLength="178.1514" x="1184.9243" y="489.1641">Recommendation Provider</text></g><!--entity Frontend--><g class="entity" data-qualified-name="Client Layer.Frontend" data-source-line="10" id="ent0003"><rect fill="#F1F1F1" height="58.2402" rx="2.5" ry="2.5" style="stroke:#181818;stroke-width:0.5;" width="154.6201" x="448.5" y="85.1201"/><text fill="#000000" font-family="sans-serif" font-size="14" lengthAdjust="spacing" textLength="134.6201" x="458.5" y="111.1641">React and TypeScript</text><text fill="#000000" font-family="sans-serif" font-size="14" lengthAdjust="spacing" textLength="101.165" x="458.5" y="130.2842">Web Application</text></g><!--entity Gateway--><g class="entity" data-qualified-name="Go REST API.Gateway" data-source-line="14" id="ent0005"><rect fill="#F1F1F1" height="58.2402" rx="2.5" ry="2.5" style="stroke:#181818;stroke-width:0.5;" width="184.1719" x="434" y="248.1201"/><text fill="#000000" font-family="sans-serif" font-size="14" lengthAdjust="spacing" textLength="119.8135" x="444" y="274.1641">Gin Router, CORS,</text><text fill="#000000" font-family="sans-serif" font-size="14" lengthAdjust="spacing" textLength="164.1719" x="444" y="293.2842">JWT and Role Middleware</text></g><!--entity Analytics--><g class="entity" data-qualified-name="Go REST API.Analytics" data-source-line="25" id="ent0013"><rect fill="#F1F1F1" height="39.1201" rx="2.5" ry="2.5" style="stroke:#181818;stroke-width:0.5;" width="126.5928" x="760.5" y="518.6201"/><text fill="#000000" font-family="sans-serif" font-size="14" lengthAdjust="spacing" textLength="106.5928" x="770.5" y="544.6641">Analytics Service</text></g><!--entity Recommendation--><g class="entity" data-qualified-name="Go REST API.Recommendation" data-source-line="26" id="ent0014"><rect fill="#F1F1F1" height="39.1201" rx="2.5" ry="2.5" style="stroke:#181818;stroke-width:0.5;" width="180.2959" x="866" y="367.1201"/><text fill="#000000" font-family="sans-serif" font-size="14" lengthAdjust="spacing" textLength="160.2959" x="876" y="393.1641">Recommendation Service</text></g><!--entity Report--><g class="entity" data-qualified-name="Go REST API.Report" data-source-line="27" id="ent0015"><rect fill="#F1F1F1" height="39.1201" rx="2.5" ry="2.5" style="stroke:#181818;stroke-width:0.5;" width="112.5928" x="601.5" y="367.1201"/><text fill="#000000" font-family="sans-serif" font-size="14" lengthAdjust="spacing" textLength="92.5928" x="611.5" y="393.1641">Report Service</text></g><!--entity Repositories--><g class="entity" data-qualified-name="Go REST API.Repositories" data-source-line="28" id="ent0016"><rect fill="#F1F1F1" height="39.1201" rx="2.5" ry="2.5" style="stroke:#181818;stroke-width:0.5;" width="145.2549" x="421.5" y="657.6201"/><text fill="#000000" font-family="sans-serif" font-size="14" lengthAdjust="spacing" textLength="125.2549" x="431.5" y="683.6641">GORM Repositories</text></g><!--entity Cache--><g class="entity" data-qualified-name="Go REST API.Cache" data-source-line="29" id="ent0017"><rect fill="#F1F1F1" height="58.2402" rx="2.5" ry="2.5" style="stroke:#181818;stroke-width:0.5;" width="163.9648" x="602" y="648.1201"/><text fill="#000000" font-family="sans-serif" font-size="14" lengthAdjust="spacing" textLength="141.627" x="612" y="674.1641">Redis Session, Cache,</text><text fill="#000000" font-family="sans-serif" font-size="14" lengthAdjust="spacing" textLength="143.9648" x="612" y="693.2842">and Rate-Limit Support</text></g><!--entity Auth--><g class="entity" data-qualified-name="Go REST API.Domain Modules.Auth" data-source-line="17" id="ent0007"><rect fill="#F1F1F1" height="58.2402" rx="2.5" ry="2.5" style="stroke:#181818;stroke-width:0.5;" width="108.7305" x="471.5" y="509.1201"/><text fill="#000000" font-family="sans-serif" font-size="14" lengthAdjust="spacing" textLength="88.7305" x="481.5" y="535.1641">Authentication</text><text fill="#000000" font-family="sans-serif" font-size="14" lengthAdjust="spacing" textLength="66.9307" x="481.5" y="554.2842">and Profile</text></g><!--entity Workout--><g class="entity" data-qualified-name="Go REST API.Domain Modules.Workout" data-source-line="18" id="ent0008"><rect fill="#F1F1F1" height="39.1201" rx="2.5" ry="2.5" style="stroke:#181818;stroke-width:0.5;" width="72.124" x="616" y="518.6201"/><text fill="#000000" font-family="sans-serif" font-size="14" lengthAdjust="spacing" textLength="52.124" x="626" y="544.6641">Workout</text></g><!--entity Nutrition--><g class="entity" data-qualified-name="Go REST API.Domain Modules.Nutrition" data-source-line="19" id="ent0009"><rect fill="#F1F1F1" height="39.1201" rx="2.5" ry="2.5" style="stroke:#181818;stroke-width:0.5;" width="72.1309" x="364" y="518.6201"/><text fill="#000000" font-family="sans-serif" font-size="14" lengthAdjust="spacing" textLength="52.1309" x="374" y="544.6641">Nutrition</text></g><!--entity Body--><g class="entity" data-qualified-name="Go REST API.Domain Modules.Body" data-source-line="20" id="ent0010"><rect fill="#F1F1F1" height="39.1201" rx="2.5" ry="2.5" style="stroke:#181818;stroke-width:0.5;" width="51.9102" x="277" y="518.6201"/><text fill="#000000" font-family="sans-serif" font-size="14" lengthAdjust="spacing" textLength="31.9102" x="287" y="544.6641">Body</text></g><!--entity Goal--><g class="entity" data-qualified-name="Go REST API.Domain Modules.Goal" data-source-line="21" id="ent0011"><rect fill="#F1F1F1" height="39.1201" rx="2.5" ry="2.5" style="stroke:#181818;stroke-width:0.5;" width="49.5723" x="192" y="518.6201"/><text fill="#000000" font-family="sans-serif" font-size="14" lengthAdjust="spacing" textLength="29.5723" x="202" y="544.6641">Goal</text></g><!--entity Admin--><g class="entity" data-qualified-name="Go REST API.Domain Modules.Admin" data-source-line="22" id="ent0012"><rect fill="#F1F1F1" height="39.1201" rx="2.5" ry="2.5" style="stroke:#181818;stroke-width:0.5;" width="108.7031" x="47.5" y="518.6201"/><text fill="#000000" font-family="sans-serif" font-size="14" lengthAdjust="spacing" textLength="88.7031" x="57.5" y="544.6641">Administration</text></g><!--entity MySQL--><g class="entity" data-qualified-name="Persistence and Infrastructure.MySQL" data-source-line="33" id="ent0019"><path d="M519,807.6201 C519,797.6201 564.0137,797.6201 564.0137,797.6201 C564.0137,797.6201 609.0273,797.6201 609.0273,807.6201 L609.0273,835.7402 C609.0273,845.7402 564.0137,845.7402 564.0137,845.7402 C564.0137,845.7402 519,845.7402 519,835.7402 L519,807.6201" fill="#F1F1F1" style="stroke:#181818;stroke-width:0.5;"/><path d="M519,807.6201 C519,817.6201 564.0137,817.6201 564.0137,817.6201 C564.0137,817.6201 609.0273,817.6201 609.0273,807.6201" fill="none" style="stroke:#181818;stroke-width:0.5;"/><text fill="#000000" font-family="sans-serif" font-size="14" lengthAdjust="spacing" textLength="70.0273" x="529" y="837.6641">MySQL 8.4</text></g><!--entity Redis--><g class="entity" data-qualified-name="Persistence and Infrastructure.Redis" data-source-line="34" id="ent0020"><rect fill="#F1F1F1" height="35.1201" rx="2.5" ry="2.5" style="stroke:#181818;stroke-width:0.5;" width="75.1445" x="648.5" y="806.1201"/><rect fill="#F1F1F1" height="35.1201" rx="2.5" ry="2.5" style="stroke:#181818;stroke-width:0.5;" width="75.1445" x="644.5" y="802.1201"/><text fill="#000000" font-family="sans-serif" font-size="14" lengthAdjust="spacing" textLength="59.1445" x="652.5" y="826.1641">Redis 7.4</text></g><!--entity Files--><g class="entity" data-qualified-name="Persistence and Infrastructure.Files" data-source-line="35" id="ent0021"><path d="M761,793.1201 L802,793.1201 A3.75,3.75 0 0 1 804.5,795.6201 L811.5,814.1201 L947.0684,814.1201 A2.5,2.5 0 0 1 949.5684,816.6201 L949.5684,847.7402 A2.5,2.5 0 0 1 947.0684,850.2402 L761,850.2402 A2.5,2.5 0 0 1 758.5,847.7402 L758.5,795.6201 A2.5,2.5 0 0 1 761,793.1201" fill="#F1F1F1" style="stroke:#181818;stroke-width:0.5;"/><line style="stroke:#181818;stroke-width:0.5;" x1="758.5" x2="811.5" y1="814.1201" y2="814.1201"/><text fill="#000000" font-family="sans-serif" font-size="14" lengthAdjust="spacing" textLength="161.0684" x="768.5" y="837.1641">Generated HTML Reports</text></g><!--entity Mock--><g class="entity" data-qualified-name="Recommendation Provider.Mock" data-source-line="39" id="ent0023"><rect fill="#F1F1F1" height="58.2402" rx="2.5" ry="2.5" style="stroke:#181818;stroke-width:0.5;" width="109.4688" x="1336.5" y="509.1201"/><text fill="#000000" font-family="sans-serif" font-size="14" lengthAdjust="spacing" textLength="89.4688" x="1346.5" y="535.1641">Mock Provider</text><text fill="#000000" font-family="sans-serif" font-size="14" lengthAdjust="spacing" textLength="53.6826" x="1346.5" y="554.2842">(Default)</text></g><!--entity External--><g class="entity" data-qualified-name="Recommendation Provider.External" data-source-line="40" id="ent0024"><rect fill="#F1F1F1" height="58.2402" rx="2.5" ry="2.5" style="stroke:#181818;stroke-width:0.5;" width="198.9717" x="1102.5" y="509.1201"/><text fill="#000000" font-family="sans-serif" font-size="14" lengthAdjust="spacing" textLength="178.9717" x="1112.5" y="535.1641">OpenAI-Compatible Provider</text><text fill="#000000" font-family="sans-serif" font-size="14" lengthAdjust="spacing" textLength="61.4688" x="1112.5" y="554.2842">(Optional)</text></g><!--link Frontend to Gateway--><g class="link" data-entity-1="ent0003" data-entity-2="ent0005" data-link-type="dependency" data-source-line="43" id="lnk25"><path d="M526,143.1601 C526,172.5301 526,212.4101 526,241.8601" fill="none" id="Frontend-to-Gateway" style="stroke:#181818;stroke-width:1;"/><polygon fill="#181818" points="526,247.8601,530,238.8601,526,242.8601,522,238.8601,526,247.8601" style="stroke:#181818;stroke-width:1;"/><text fill="#000000" font-family="sans-serif" font-size="13" lengthAdjust="spacing" textLength="72.9536" x="527" y="191.0181">REST/JSON</text></g><!--link Gateway to Auth--><g class="link" data-entity-1="ent0005" data-entity-2="ent0007" data-link-type="dependency" data-source-line="44" id="lnk26"><path d="M526,306.3301 C526,356.1501 526,453.1501 526,502.9401" fill="none" id="Gateway-to-Auth" style="stroke:#181818;stroke-width:1;"/><polygon fill="#181818" points="526,508.9401,530,499.9401,526,503.9401,522,499.9401,526,508.9401" style="stroke:#181818;stroke-width:1;"/></g><!--link Gateway to Workout--><g class="link" data-entity-1="ent0005" data-entity-2="ent0008" data-link-type="dependency" data-source-line="45" id="lnk27"><path d="M538.24,306.3501 C553.7,341.5701 581.49,403.4401 608,455.1201 C619.21,476.9701 629.7438,496.5144 638.7838,513.0644" fill="none" id="Gateway-to-Workout" style="stroke:#181818;stroke-width:1;"/><polygon fill="#181818" points="641.66,518.3301,640.8561,508.5141,639.2631,513.9421,633.8352,512.3491,641.66,518.3301" style="stroke:#181818;stroke-width:1;"/></g><!--link Gateway to Nutrition--><g class="link" data-entity-1="ent0005" data-entity-2="ent0009" data-link-type="dependency" data-source-line="46" id="lnk28"><path d="M512.28,306.3301 C486.38,359.5601 433.575,468.0948 411.735,512.9848" fill="none" id="Gateway-to-Nutrition" style="stroke:#181818;stroke-width:1;"/><polygon fill="#181818" points="409.11,518.3801,416.6443,512.0371,411.2975,513.884,409.4505,508.5371,409.11,518.3801" style="stroke:#181818;stroke-width:1;"/></g><!--link Gateway to Body--><g class="link" data-entity-1="ent0005" data-entity-2="ent0010" data-link-type="dependency" data-source-line="47" id="lnk29"><path d="M494.3,306.1801 C456.31,340.7601 392.05,402.4301 346,463.1201 C332.62,480.7601 323.0102,497.6027 315.0002,513.0627" fill="none" id="Gateway-to-Body" style="stroke:#181818;stroke-width:1;"/><polygon fill="#181818" points="312.24,518.3901,319.9319,512.2391,314.5402,513.9506,312.8287,508.5589,312.24,518.3901" style="stroke:#181818;stroke-width:1;"/></g><!--link Gateway to Goal--><g class="link" data-entity-1="ent0005" data-entity-2="ent0011" data-link-type="dependency" data-source-line="48" id="lnk30"><path d="M470.21,306.1601 C411.65,337.8101 319.83,394.0101 259,463.1201 C244.26,479.8601 234.8226,497.1562 227.4826,512.9962" fill="none" id="Gateway-to-Goal" style="stroke:#181818;stroke-width:1;"/><polygon fill="#181818" points="224.96,518.4401,232.3732,511.956,227.0622,513.9035,225.1147,508.5925,224.96,518.4401" style="stroke:#181818;stroke-width:1;"/></g><!--link Gateway to Admin--><g class="link" data-entity-1="ent0005" data-entity-2="ent0012" data-link-type="dependency" data-source-line="49" id="lnk31"><path d="M447.38,306.1701 C406.09,322.0501 355.23,343.4501 312,367.1201 C246.47,403.0001 230.98,414.7901 174,463.1201 C153.5,480.5101 136.3166,498.4729 122.2766,514.0529" fill="none" id="Gateway-to-Admin" style="stroke:#181818;stroke-width:1;"/><polygon fill="#181818" points="118.26,518.5101,127.2564,514.5021,121.6072,514.7958,121.3135,509.1466,118.26,518.5101" style="stroke:#181818;stroke-width:1;"/></g><!--link Gateway to Analytics--><g class="link" data-entity-1="ent0005" data-entity-2="ent0013" data-link-type="dependency" data-source-line="50" id="lnk32"><path d="M618.22,298.6101 C688.29,319.7801 779.03,360.7201 818,436.1201 C831.47,462.1801 830.6801,491.2685 827.9701,512.4885" fill="none" id="Gateway-to-Analytics" style="stroke:#181818;stroke-width:1;"/><polygon fill="#181818" points="827.21,518.4401,832.3179,510.0193,827.8434,513.4804,824.3824,509.0059,827.21,518.4401" style="stroke:#181818;stroke-width:1;"/></g><!--link Gateway to Recommendation--><g class="link" data-entity-1="ent0005" data-entity-2="ent0014" data-link-type="dependency" data-source-line="51" id="lnk33"><path d="M618.14,290.8401 C679.45,300.4601 761.4,315.5501 832,336.1201 C860.49,344.4201 885.981,354.423 909.851,364.723" fill="none" id="Gateway-to-Recommendation" style="stroke:#181818;stroke-width:1;"/><polygon fill="#181818" points="915.36,367.1001,908.6813,359.8617,910.7692,365.1192,905.5117,367.2071,915.36,367.1001" style="stroke:#181818;stroke-width:1;"/></g><!--link Gateway to Report--><g class="link" data-entity-1="ent0005" data-entity-2="ent0015" data-link-type="dependency" data-source-line="52" id="lnk34"><path d="M560.68,306.3601 C584.21,325.5201 609.9986,346.5201 630.5186,363.2401" fill="none" id="Gateway-to-Report" style="stroke:#181818;stroke-width:1;"/><polygon fill="#181818" points="635.17,367.0301,630.7196,358.2441,631.2938,363.8718,625.6662,364.446,635.17,367.0301" style="stroke:#181818;stroke-width:1;"/></g><!--link Auth to Repositories--><g class="link" data-entity-1="ent0007" data-entity-2="ent0016" data-link-type="dependency" data-source-line="54" id="lnk35"><path d="M523,567.1501 C521.06,582.3601 518.11,601.4201 514,618.1201 C510.69,631.5701 507.6856,640.6917 503.4656,651.9517" fill="none" id="Auth-to-Repositories" style="stroke:#181818;stroke-width:1;"/><polygon fill="#181818" points="501.36,657.5701,508.2641,650.5463,503.1147,652.8881,500.7729,647.7388,501.36,657.5701" style="stroke:#181818;stroke-width:1;"/></g><!--link Workout to Repositories--><g class="link" data-entity-1="ent0008" data-entity-2="ent0016" data-link-type="dependency" data-source-line="55" id="lnk36"><path d="M653.52,557.8101 C653.92,575.2701 651.78,601.1401 638,618.1201 C627,631.6701 595.9716,644.4512 562.3716,655.6612" fill="none" id="Workout-to-Repositories" style="stroke:#181818;stroke-width:1;"/><polygon fill="#181818" points="556.68,657.5601,566.4833,658.5062,561.423,655.9777,563.9515,650.9174,556.68,657.5601" style="stroke:#181818;stroke-width:1;"/></g><!--link Nutrition to Repositories--><g class="link" data-entity-1="ent0009" data-entity-2="ent0016" data-link-type="dependency" data-source-line="56" id="lnk37"><path d="M381.11,557.8001 C366.76,574.3401 351.45,598.7801 364,618.1201 C377.12,638.3301 393.5089,649.3831 415.6989,658.0231" fill="none" id="Nutrition-to-Repositories" style="stroke:#181818;stroke-width:1;"/><polygon fill="#181818" points="421.29,660.2001,414.3546,653.2072,416.6307,658.386,411.452,660.6621,421.29,660.2001" style="stroke:#181818;stroke-width:1;"/></g><!--link Body to Repositories--><g class="link" data-entity-1="ent0010" data-entity-2="ent0016" data-link-type="dependency" data-source-line="57" id="lnk38"><path d="M292.16,557.8001 C284.43,569.3401 272.96,583.3801 259,591.1201 C237.4,603.1001 220.16,580.4401 204,599.1201 C198.48,605.5101 198.65,611.5901 204,618.1201 C230.98,651.0301 338.6095,665.1562 415.3595,671.3662" fill="none" id="Body-to-Repositories" style="stroke:#181818;stroke-width:1;"/><polygon fill="#181818" points="421.34,671.8501,412.6919,667.1373,416.3563,671.4469,412.0467,675.1113,421.34,671.8501" style="stroke:#181818;stroke-width:1;"/></g><!--link Goal to Repositories--><g class="link" data-entity-1="ent0011" data-entity-2="ent0016" data-link-type="dependency" data-source-line="58" id="lnk39"><path d="M207.04,557.6601 C199.61,569.4601 188.3,583.8401 174,591.1201 C161.1,597.6801 53.91,588.5801 44,599.1201 C38.22,605.2701 38.42,611.7801 44,618.1201 C68.48,645.9601 294.3021,663.8385 415.2821,671.5485" fill="none" id="Goal-to-Repositories" style="stroke:#181818;stroke-width:1;"/><polygon fill="#181818" points="421.27,671.9301,412.5426,667.3658,416.2801,671.6121,412.0338,675.3496,421.27,671.9301" style="stroke:#181818;stroke-width:1;"/></g><!--link Admin to Repositories--><g class="link" data-entity-1="ent0012" data-entity-2="ent0016" data-link-type="dependency" data-source-line="59" id="lnk40"><path d="M69.22,557.9301 C45.07,574.1301 19.27,598.0001 37,618.1201 C61.95,646.4401 292.5513,664.1613 415.1313,671.7113" fill="none" id="Admin-to-Repositories" style="stroke:#181818;stroke-width:1;"/><polygon fill="#181818" points="421.12,672.0801,412.3829,667.5344,416.1295,671.7727,411.8911,675.5193,421.12,672.0801" style="stroke:#181818;stroke-width:1;"/></g><!--link Analytics to Repositories--><g class="link" data-entity-1="ent0013" data-entity-2="ent0016" data-link-type="dependency" data-source-line="60" id="lnk41"><path d="M821.92,557.8901 C819.23,578.6301 813.79,610.1701 805,618.1201 C768.4,651.2101 633.18,637.5001 585,648.1201 C573.38,650.6801 566.8403,652.3074 555.1903,655.7774" fill="none" id="Analytics-to-Repositories" style="stroke:#181818;stroke-width:1;"/><polygon fill="#181818" points="549.44,657.4901,559.2074,658.7545,554.232,656.0628,556.9237,651.0874,549.44,657.4901" style="stroke:#181818;stroke-width:1;"/></g><!--link Recommendation to Repositories--><g class="link" data-entity-1="ent0014" data-entity-2="ent0016" data-link-type="dependency" data-source-line="61" id="lnk42"><path d="M961.62,406.3201 C964.94,419.9101 967.97,438.7201 965,455.1201 C964.32,458.8601 963.29,459.5501 962,463.1201 C937.19,531.7201 965.45,573.1601 908,618.1201 C851.23,662.5501 655.71,634.1101 585,648.1201 C572.84,650.5301 565.7401,652.2165 553.6601,655.8165" fill="none" id="Recommendation-to-Repositories" style="stroke:#181818;stroke-width:1;"/><polygon fill="#181818" points="547.91,657.5301,557.6775,658.7931,552.7017,656.1021,555.3927,651.1263,547.91,657.5301" style="stroke:#181818;stroke-width:1;"/></g><!--link Report to Repositories--><g class="link" data-entity-1="ent0015" data-entity-2="ent0016" data-link-type="dependency" data-source-line="62" id="lnk43"><path d="M644.33,406.3201 C635.28,421.1701 627.06,441.6201 639,455.1201 C658.28,476.9201 681.71,444.4001 704,463.1201 C749.53,501.3801 698.36,551.8201 743,591.1201 C758.9,605.1201 776.33,582.9301 790,599.1201 C795.45,605.5701 795.52,611.7301 790,618.1201 C759.89,652.9501 629.91,637.9901 585,648.1201 C573.39,650.7401 566.859,652.3828 555.209,655.8628" fill="none" id="Report-to-Repositories" style="stroke:#181818;stroke-width:1;"/><polygon fill="#181818" points="549.46,657.5801,559.2283,658.8368,554.2508,656.149,556.9386,651.1715,549.46,657.5801" style="stroke:#181818;stroke-width:1;"/></g><!--link Repositories to MySQL--><g class="link" data-entity-1="ent0016" data-entity-2="ent0019" data-link-type="dependency" data-source-line="63" id="lnk44"><path d="M503.15,696.7501 C515.83,722.5501 536.0751,763.7645 549.8751,791.8645" fill="none" id="Repositories-to-MySQL" style="stroke:#181818;stroke-width:1;"/><polygon fill="#181818" points="552.52,797.2501,552.1431,787.4085,550.3159,792.7621,544.9623,790.935,552.52,797.2501" style="stroke:#181818;stroke-width:1;"/></g><!--link Auth to Cache--><g class="link" data-entity-1="ent0007" data-entity-2="ent0017" data-link-type="dependency" data-source-line="65" id="lnk45"><path d="M541.4,567.4501 C551.21,583.6701 565.05,603.6201 581,618.1201 C593.53,629.5101 603.4666,636.6101 618.2466,645.0301" fill="none" id="Auth-to-Cache" style="stroke:#181818;stroke-width:1;"/><polygon fill="#181818" points="623.46,648.0001,617.62,640.0696,619.1155,645.5251,613.66,647.0207,623.46,648.0001" style="stroke:#181818;stroke-width:1;"/><text fill="#000000" font-family="sans-serif" font-size="13" lengthAdjust="spacing" textLength="75.8735" x="582" y="615.0181">session state</text></g><!--link Workout to Cache--><g class="link" data-entity-1="ent0008" data-entity-2="ent0017" data-link-type="dependency" data-source-line="66" id="lnk46"><path d="M656.38,557.8801 C661.83,581.1901 669.7963,615.3071 676.0863,642.2571" fill="none" id="Workout-to-Cache" style="stroke:#181818;stroke-width:1;"/><polygon fill="#181818" points="677.45,648.1001,679.2997,638.4265,676.3136,643.231,671.5091,640.2448,677.45,648.1001" style="stroke:#181818;stroke-width:1;"/><text fill="#000000" font-family="sans-serif" font-size="13" lengthAdjust="spacing" textLength="111.9854" x="670" y="615.0181">invalidate summary</text></g><!--link Nutrition to Cache--><g class="link" data-entity-1="ent0009" data-entity-2="ent0017" data-link-type="dependency" data-source-line="67" id="lnk47"><path d="M405.16,557.8101 C411.18,576.0601 422.97,603.1801 443,618.1201 C494.35,656.4301 521.79,632.8101 584,648.1201 C589.86,649.5601 590.1058,649.5897 596.1758,651.1797" fill="none" id="Nutrition-to-Cache" style="stroke:#181818;stroke-width:1;"/><polygon fill="#181818" points="601.98,652.7001,594.2873,646.5501,597.1432,651.4331,592.2602,654.289,601.98,652.7001" style="stroke:#181818;stroke-width:1;"/><text fill="#000000" font-family="sans-serif" font-size="13" lengthAdjust="spacing" textLength="111.9854" x="444" y="615.0181">invalidate summary</text></g><!--link Body to Cache--><g class="link" data-entity-1="ent0010" data-entity-2="ent0017" data-link-type="dependency" data-source-line="68" id="lnk48"><path d="M297.55,557.6801 C293.56,575.5501 291.11,602.1601 306,618.1201 C348.38,663.5601 522.98,636.3701 584,648.1201 C589.84,649.2501 589.9981,649.1818 596.0181,650.5918" fill="none" id="Body-to-Cache" style="stroke:#181818;stroke-width:1;"/><polygon fill="#181818" points="601.86,651.9601,594.0093,646.0131,596.9918,650.8199,592.185,653.8023,601.86,651.9601" style="stroke:#181818;stroke-width:1;"/><text fill="#000000" font-family="sans-serif" font-size="13" lengthAdjust="spacing" textLength="111.9854" x="307" y="615.0181">invalidate summary</text></g><!--link Goal to Cache--><g class="link" data-entity-1="ent0011" data-entity-2="ent0017" data-link-type="dependency" data-source-line="69" id="lnk49"><path d="M199.86,557.8101 C190.86,568.9301 180.73,583.8101 176,599.1201 C173.51,607.1901 170.25,611.9301 176,618.1201 C206.94,651.4201 539.22,640.2901 584,648.1201 C589.86,649.1501 590.017,649.05 596.047,650.41" fill="none" id="Goal-to-Cache" style="stroke:#181818;stroke-width:1;"/><polygon fill="#181818" points="601.9,651.7301,594.0006,645.848,597.0225,650.6301,592.2405,653.652,601.9,651.7301" style="stroke:#181818;stroke-width:1;"/><text fill="#000000" font-family="sans-serif" font-size="13" lengthAdjust="spacing" textLength="111.9854" x="177" y="615.0181">invalidate summary</text></g><!--link Analytics to Cache--><g class="link" data-entity-1="ent0013" data-entity-2="ent0017" data-link-type="dependency" data-source-line="70" id="lnk50"><path d="M825.9,557.6401 C826.68,574.9801 825.15,600.7601 812,618.1201 C800.37,633.4901 789.1226,642.2802 771.6726,650.7102" fill="none" id="Analytics-to-Cache" style="stroke:#181818;stroke-width:1;"/><polygon fill="#181818" points="766.27,653.3201,776.1139,653.0069,770.7722,651.1451,772.6339,645.8034,766.27,653.3201" style="stroke:#181818;stroke-width:1;"/><text fill="#000000" font-family="sans-serif" font-size="13" lengthAdjust="spacing" textLength="78.0381" x="821" y="615.0181">weekly cache</text></g><!--link Recommendation to Cache--><g class="link" data-entity-1="ent0014" data-entity-2="ent0017" data-link-type="dependency" data-source-line="71" id="lnk51"><path d="M967.23,406.2701 C971.85,415.0001 976.67,425.7601 979,436.1201 C993.43,500.2101 1026.61,536.0401 946,618.1201 C921.19,643.3801 839.4314,658.3282 772.2514,666.9282" fill="none" id="Recommendation-to-Cache" style="stroke:#181818;stroke-width:1;"/><polygon fill="#181818" points="766.3,667.6901,775.7351,670.5149,771.2595,667.0552,774.7192,662.5797,766.3,667.6901" style="stroke:#181818;stroke-width:1;"/><text fill="#000000" font-family="sans-serif" font-size="13" lengthAdjust="spacing" textLength="49.1182" x="999" y="544.5181">rate limit</text></g><!--link Cache to Redis--><g class="link" data-entity-1="ent0017" data-entity-2="ent0020" data-link-type="dependency" data-source-line="72" id="lnk52"><path d="M684,706.2701 C684,734.6601 684,771.6701 684,796.0501" fill="none" id="Cache-to-Redis" style="stroke:#181818;stroke-width:1;"/><polygon fill="#181818" points="684,802.0501,688,793.0501,684,797.0501,680,793.0501,684,802.0501" style="stroke:#181818;stroke-width:1;"/></g><!--link Recommendation to Analytics--><g class="link" data-entity-1="ent0014" data-entity-2="ent0013" data-link-type="dependency" data-source-line="74" id="lnk53"><path d="M902.9,406.1301 C887.74,413.5201 872.3,423.3701 861,436.1201 C840.07,459.7401 831.7184,490.286 827.7284,512.336" fill="none" id="Recommendation-to-Analytics" style="stroke:#181818;stroke-width:1;"/><polygon fill="#181818" points="826.66,518.2401,832.1986,510.0962,827.5503,513.32,824.3265,508.6717,826.66,518.2401" style="stroke:#181818;stroke-width:1;"/><text fill="#000000" font-family="sans-serif" font-size="13" lengthAdjust="spacing" textLength="98.9854" x="862" y="452.0181">weekly indicators</text></g><!--link Recommendation to Mock--><g class="link" data-entity-1="ent0014" data-entity-2="ent0023" data-link-type="dependency" data-source-line="75" id="lnk54"><path d="M1046.11,391.7001 C1122.81,398.4801 1233.8,416.3401 1319,463.1201 C1339.27,474.2501 1353.5807,488.3145 1366.5807,504.1345" fill="none" id="Recommendation-to-Mock" style="stroke:#181818;stroke-width:1;"/><polygon fill="#181818" points="1370.39,508.7701,1367.7665,499.2771,1367.2156,504.9071,1361.5856,504.3562,1370.39,508.7701" style="stroke:#181818;stroke-width:1;"/><text fill="#000000" font-family="sans-serif" font-size="13" lengthAdjust="spacing" textLength="39.0317" x="1302" y="452.0181">default</text></g><!--link Recommendation to External--><g class="link" data-entity-1="ent0014" data-entity-2="ent0024" data-link-type="dependency" data-source-line="76" id="lnk55"><path d="M986.66,406.2501 C1029.16,432.0801 1101.2025,475.8642 1150.7025,505.9442" fill="none" id="Recommendation-to-External" style="stroke:#181818;stroke-width:1;stroke-dasharray:7,7;"/><polygon fill="#181818" points="1155.83,509.0601,1150.216,500.968,1151.5571,506.4636,1146.0615,507.8047,1155.83,509.0601" style="stroke:#181818;stroke-width:1;"/><text fill="#000000" font-family="sans-serif" font-size="13" lengthAdjust="spacing" textLength="70.8271" x="1065" y="452.0181">configurable</text></g><!--link Report to Analytics--><g class="link" data-entity-1="ent0015" data-entity-2="ent0013" data-link-type="dependency" data-source-line="77" id="lnk56"><path d="M650.73,406.3401 C646.23,421.4101 643.29,442.1501 655,455.1201 C666.68,468.0501 716.9,456.4601 733,463.1201 C762.73,475.4301 786.267,496.3997 803.117,513.9697" fill="none" id="Report-to-Analytics" style="stroke:#181818;stroke-width:1;"/><polygon fill="#181818" points="807.27,518.3001,803.9275,509.0358,803.8092,514.6914,798.1536,514.5731,807.27,518.3001" style="stroke:#181818;stroke-width:1;"/><text fill="#000000" font-family="sans-serif" font-size="13" lengthAdjust="spacing" textLength="157.5361" x="656" y="452.0181">requested-period indicators</text></g><!--link Report to Files--><g class="link" data-entity-1="ent0015" data-entity-2="ent0021" data-link-type="dependency" data-source-line="78" id="lnk57"><path d="M714.74,395.6701 C819.08,410.1301 1048.54,440.3701 1243,455.1201 C1255.14,456.0401 1453.55,454.3601 1462,463.1201 C1632.83,640.3101 1166.4684,779.4382 955.6684,822.5382" fill="none" id="Report-to-Files" style="stroke:#181818;stroke-width:1;"/><polygon fill="#181818" points="949.79,823.7401,959.4088,825.8562,954.6887,822.7385,957.8063,818.0184,949.79,823.7401" style="stroke:#181818;stroke-width:1;"/><text fill="#000000" font-family="sans-serif" font-size="13" lengthAdjust="spacing" textLength="125.7153" x="1473" y="615.0181">write/download HTML</text></g><?plantuml-src VLN1Rjim3BtxAuYUDg1fBmCsz50WIzkiHT9qSO0UcXqKYqc4o98doSsCOVy-Ih8TEmbwinwVg2VoKNQw0ATXfPtJEN1XC7D2gyG99n56EY-qGkNWJh2DOVaDf9LrcCFGP5lXY5mQJ1Ax4wfW58SLotOReql5Hrfg0tlFwiJjbd6z5se3QoPjDv8rPwMkegEz4AOsiaifA3dRu34XgN6u64dXnKvOXUO2_YO0RtDacGEcE2og0jFCYC8jrIkkO5WKKcJCN_SNC0iFHYk7YYV_EXd76kRtwGA6Buzrmh5GCDUbGtC9ezaylLogfzT5E66kITTKS2vnpmo6h6FcQ54bjBLDUgTpHbcccfSIRSnBcOUbsvByMjDI-PGlHg-5ZAbyF39VjTcHX83Mtp7mN3eZsXkrgnZyhdaLSFyHeR5cCigaZre5puKIrfb3PG94qN_-5cz3nMH5AYsaQDv5Lejhq5XqwcPEjGmvUhn-A98BRTmHoKEXshFvD2ojSDe8j6sy0M8ABhmSQoadjOLbMxoC1PnJ_GSJaGiweInysf0XK7gTVa5ZwTgeCWpDV5HhmwWCPV1uR1A9PYjcYJsjqfyJ-7RrvS9d2okAPrhAE40MBgAehpKbh8YorfAZ8MEXGYenSlYnc4xg6zj0VQ26svwsetgIATu5Roq-rTcknPRgqnskMIdTvt1H7_IaMO5g-3Zm4qr9LcJKpevPuVCo6RVS_o5pqyfBQ8O21eFRnijm4sRY-YcTFISDvkF1e5sWyMONEvYoYmPBTe5Wo5xoOC8UqbgkYnuPh1yAjagypXPeVLIBFGsqYaz3NlOfwhMVek42P-1sd4v2Hsq_4m-JSnPl5Y4Q_NcuTt0_jT76YG7hg4gz0ZGCeTwP52G0mPPvpanrL8uFY6rnFk2qfVg0qwzGGzmZxcG5MHZaCvLgU7x8GFe788bGB9UVndFR3eUrHmZ5_PkipTcEXEcx0Hw7xfXnTNNRpXEnCgtMObCQHWFORL_tL8E_IwI7Y0yAD4Bp_ldjbl1AU97K3BocdwgIciNNv3y0?></g></svg>